<svg id="Layer_1" data-name="Layer 1" xmlns="http://www.w3.org/2000/svg" viewBox="0 0 399.75 49.63"><defs><style>.cls-1{fill:#00458f;}</style></defs><title>final_v1</title><path class="cls-1" d="M45.46,49.08H40.38A2.14,2.14,0,0,1,39,48.64a2.61,2.61,0,0,1-.82-1.11L33.6,35.81H11.82L7.28,47.53a2.34,2.34,0,0,1-.78,1.08,2.12,2.12,0,0,1-1.42.47H0L19.41.54h6.64Zm-13.69-18L24.15,11.31c-.22-.58-.46-1.27-.71-2.05s-.48-1.6-.71-2.49a35.77,35.77,0,0,1-1.46,4.58L13.65,31.06Z"/><path class="cls-1" d="M84.69,39.06a1.22,1.22,0,0,1,.94.44l2.61,2.81A20.82,20.82,0,0,1,81,47.7a24.85,24.85,0,0,1-10.28,1.93,24,24,0,0,1-9.49-1.82A20.78,20.78,0,0,1,54,42.73a22.84,22.84,0,0,1-4.67-7.84,29.21,29.21,0,0,1-1.66-10.06,28.29,28.29,0,0,1,1.72-10.06,23.14,23.14,0,0,1,4.87-7.86,21.71,21.71,0,0,1,7.5-5.1A24.91,24.91,0,0,1,71.37,0a23.45,23.45,0,0,1,9.15,1.66,23.08,23.08,0,0,1,7,4.51l-2.17,3a1.77,1.77,0,0,1-.53.56,1.46,1.46,0,0,1-.86.22,2.69,2.69,0,0,1-1.49-.66,22.46,22.46,0,0,0-2.3-1.47,17.52,17.52,0,0,0-3.56-1.48,18,18,0,0,0-5.25-.66A17.65,17.65,0,0,0,64.46,7a14.91,14.91,0,0,0-5.37,3.77,17.38,17.38,0,0,0-3.5,6,24,24,0,0,0-1.26,8,23.45,23.45,0,0,0,1.31,8.1,17.78,17.78,0,0,0,3.56,6,15,15,0,0,0,5.31,3.74A16.93,16.93,0,0,0,71.14,44a27.16,27.16,0,0,0,3.91-.26,15.64,15.64,0,0,0,3.22-.79A13.76,13.76,0,0,0,81,41.55a20.2,20.2,0,0,0,2.52-2A1.77,1.77,0,0,1,84.69,39.06Z"/><path class="cls-1" d="M128.69,6.06H113v43h-6.54v-43H90.68V.54h38Z"/><path class="cls-1" d="M142.44,49.08h-6.57V.54h6.57Z"/><path class="cls-1" d="M199.69,24.83a28.05,28.05,0,0,1-1.73,10,22.87,22.87,0,0,1-4.88,7.84,21.81,21.81,0,0,1-7.57,5.1,27.25,27.25,0,0,1-19.53,0,21.91,21.91,0,0,1-7.55-5.1,22.87,22.87,0,0,1-4.88-7.84,28.05,28.05,0,0,1-1.73-10,28.05,28.05,0,0,1,1.73-10A23,23,0,0,1,158.43,7,22,22,0,0,1,166,1.83a27,27,0,0,1,19.53,0A21.88,21.88,0,0,1,193.08,7,23,23,0,0,1,198,14.82,28.05,28.05,0,0,1,199.69,24.83Zm-6.74,0a24.76,24.76,0,0,0-1.22-8,17,17,0,0,0-3.46-6A14.89,14.89,0,0,0,182.85,7a19.73,19.73,0,0,0-14.19,0,15.14,15.14,0,0,0-5.44,3.78,16.84,16.84,0,0,0-3.47,6,24.76,24.76,0,0,0-1.22,8,24.59,24.59,0,0,0,1.22,8,16.88,16.88,0,0,0,3.47,6,15.09,15.09,0,0,0,5.44,3.76,20,20,0,0,0,14.19,0,14.85,14.85,0,0,0,5.42-3.76,17,17,0,0,0,3.46-6A24.59,24.59,0,0,0,193,24.83Z"/><path class="cls-1" d="M248.4.54V49.08h-3.29a2.81,2.81,0,0,1-1.3-.27,3.26,3.26,0,0,1-1-.91L214.69,11.31c.05.57.08,1.12.11,1.66s0,1,0,1.53V49.08h-5.76V.54h3.39a5.06,5.06,0,0,1,.74,0,2.09,2.09,0,0,1,.55.17,2.21,2.21,0,0,1,.47.34,4.88,4.88,0,0,1,.51.56l28.08,36.55q-.06-.89-.12-1.71c0-.55-.05-1.08-.05-1.58V.54Z"/><path class="cls-1" d="M284.71,49.08h-6.57V.54h6.57Z"/><path class="cls-1" d="M336.44.54V49.08h-3.29a2.81,2.81,0,0,1-1.3-.27,3.28,3.28,0,0,1-1-.91L302.73,11.31c0,.57.08,1.12.1,1.66s0,1,0,1.53V49.08h-5.76V.54h3.39a5.06,5.06,0,0,1,.74,0,1.91,1.91,0,0,1,.54.17,2,2,0,0,1,.48.34,4.88,4.88,0,0,1,.51.56l28.08,36.55q-.08-.89-.12-1.71c0-.55-.05-1.08-.05-1.58V.54Z"/><path class="cls-1" d="M355.37,21.82h2.48a5.38,5.38,0,0,0,2.06-.33,3.66,3.66,0,0,0,1.43-1.1L377.49,2.1A3.88,3.88,0,0,1,378.92.88a4.46,4.46,0,0,1,1.83-.34h5.55l-18.49,20.9a11.2,11.2,0,0,1-1.31,1.34,6,6,0,0,1-1.34.86,5.56,5.56,0,0,1,1.66.9,8.35,8.35,0,0,1,1.46,1.54l19.31,23H381.9a5.82,5.82,0,0,1-1.1-.08,2.89,2.89,0,0,1-.8-.27,2.67,2.67,0,0,1-.59-.44,4.15,4.15,0,0,1-.49-.59L362.18,28.42a4.1,4.1,0,0,0-1.45-1.2,6,6,0,0,0-2.38-.36h-3V49.08h-6.53V.54h6.53Z"/><path class="cls-1" d="M391.28,45.36a4.38,4.38,0,0,1,.32-1.66,4.49,4.49,0,0,1,.88-1.36,4.22,4.22,0,0,1,4.66-.91,4.23,4.23,0,0,1,1.35.91,4.41,4.41,0,0,1,.92,1.36,4.21,4.21,0,0,1,.34,1.66,4.12,4.12,0,0,1-.34,1.67,4.32,4.32,0,0,1-.92,1.34,3.9,3.9,0,0,1-1.35.9,4.47,4.47,0,0,1-3.32,0,3.77,3.77,0,0,1-1.34-.9A4.39,4.39,0,0,1,391.6,47,4.29,4.29,0,0,1,391.28,45.36Z"/></svg>