<svg xmlns="http://www.w3.org/2000/svg" viewBox="0 0 465.45 60.05"><defs><style>.cls-1{fill:#00458f;}</style></defs><title>1Asset 3b</title><g id="Layer_2" data-name="Layer 2"><g id="Layer_1-2" data-name="Layer 1"><path class="cls-1" d="M55,59.39H48.86a2.62,2.62,0,0,1-1.72-.53,3.21,3.21,0,0,1-1-1.35L40.66,43.33H14.31L8.81,57.51a2.87,2.87,0,0,1-.94,1.31,2.64,2.64,0,0,1-1.72.57H0L23.49.66h8ZM38.45,37.59l-9.22-23.9c-.28-.71-.56-1.54-.86-2.48s-.59-2-.87-3a44.06,44.06,0,0,1-1.76,5.53L16.52,37.59Z"/><path class="cls-1" d="M102.47,47.26a1.54,1.54,0,0,1,1.15.53l3.16,3.41A25.15,25.15,0,0,1,98,57.71a29.92,29.92,0,0,1-12.44,2.34,29.11,29.11,0,0,1-11.48-2.19,25.18,25.18,0,0,1-8.81-6.15,27.72,27.72,0,0,1-5.66-9.49,35.43,35.43,0,0,1-2-12.17,34.3,34.3,0,0,1,2.09-12.18A28.06,28.06,0,0,1,65.6,8.36a26.5,26.5,0,0,1,9.08-6.17A30.28,30.28,0,0,1,86.37,0,28.38,28.38,0,0,1,97.43,2a27.88,27.88,0,0,1,8.45,5.45l-2.63,3.65a2,2,0,0,1-.63.67,1.82,1.82,0,0,1-1.05.27,3.27,3.27,0,0,1-1.8-.8A26.71,26.71,0,0,0,97,9.47a21.29,21.29,0,0,0-4.3-1.78A24,24,0,0,0,78,8.46,18.27,18.27,0,0,0,71.51,13a21.1,21.1,0,0,0-4.25,7.3,29.17,29.17,0,0,0-1.51,9.72,28.12,28.12,0,0,0,1.58,9.79,21.55,21.55,0,0,0,4.3,7.28,18.26,18.26,0,0,0,6.43,4.53,20.51,20.51,0,0,0,8,1.56,33.61,33.61,0,0,0,4.73-.31,19.52,19.52,0,0,0,3.9-1A16.1,16.1,0,0,0,98,50.27a23.76,23.76,0,0,0,3-2.39A2.14,2.14,0,0,1,102.47,47.26Z"/><path class="cls-1" d="M155.72,7.34h-19V59.39h-7.91v-52H109.73V.66h46Z"/><path class="cls-1" d="M172.36,59.39h-8V.66h8Z"/><path class="cls-1" d="M241.64,30.05a34,34,0,0,1-2.09,12.11,27.92,27.92,0,0,1-5.91,9.49,26.45,26.45,0,0,1-9.16,6.17,33,33,0,0,1-23.63,0,26.55,26.55,0,0,1-9.14-6.17,27.75,27.75,0,0,1-5.9-9.49,33.77,33.77,0,0,1-2.09-12.11,33.82,33.82,0,0,1,2.09-12.12,28,28,0,0,1,5.9-9.51,26.65,26.65,0,0,1,9.14-6.21,32.69,32.69,0,0,1,23.63,0,26.55,26.55,0,0,1,9.16,6.21,28.21,28.21,0,0,1,5.91,9.51A34,34,0,0,1,241.64,30.05Zm-8.16,0A29.71,29.71,0,0,0,232,20.33a20.48,20.48,0,0,0-4.18-7.28,18.17,18.17,0,0,0-6.56-4.57,24,24,0,0,0-17.17,0,18.42,18.42,0,0,0-6.58,4.57,20.37,20.37,0,0,0-4.2,7.28,29.71,29.71,0,0,0-1.48,9.72,29.52,29.52,0,0,0,1.48,9.69,20.37,20.37,0,0,0,4.2,7.26,18.1,18.1,0,0,0,6.58,4.54,24.11,24.11,0,0,0,17.17,0A17.86,17.86,0,0,0,227.82,47,20.48,20.48,0,0,0,232,39.74,29.52,29.52,0,0,0,233.48,30.05Z"/><path class="cls-1" d="M300.58.66V59.39h-4a3.42,3.42,0,0,1-1.58-.32A4,4,0,0,1,293.77,58l-34-44.27c.06.68.1,1.35.13,2s0,1.27,0,1.84V59.39h-7V.66h4.1a5.8,5.8,0,0,1,.9.06,2.55,2.55,0,0,1,.66.2,2.54,2.54,0,0,1,.57.41,6.13,6.13,0,0,1,.61.68l34,44.23q-.09-1.07-.15-2.07c0-.67-.06-1.31-.06-1.91V.66Z"/><path class="cls-1" d="M344.52,59.39h-7.95V.66h7.95Z"/><path class="cls-1" d="M407.11.66V59.39h-4a3.4,3.4,0,0,1-1.58-.32A3.94,3.94,0,0,1,400.31,58l-34-44.27q.07,1,.12,2c0,.65,0,1.27,0,1.84V59.39h-7V.66h4.1a5.62,5.62,0,0,1,.9.06,2.44,2.44,0,0,1,.66.2,2.54,2.54,0,0,1,.57.41,7.31,7.31,0,0,1,.62.68l34,44.23c-.06-.71-.1-1.4-.15-2.07s-.06-1.31-.06-1.91V.66Z"/><path class="cls-1" d="M451.09,48.92,438.26,34.39a4.79,4.79,0,0,0-1.76-1.45,7.16,7.16,0,0,0-2.87-.44H430V59.39h-7.91V.66H430V26.4h3a6.69,6.69,0,0,0,2.5-.39,4.61,4.61,0,0,0,1.72-1.33L454.79,2.54a4.69,4.69,0,0,1,1.72-1.47,5.24,5.24,0,0,1,2.22-.41h6.72L445.07,26a14.45,14.45,0,0,1-1.58,1.62,7.82,7.82,0,0,1-1.62,1,6.53,6.53,0,0,1,2,1.09,10.21,10.21,0,0,1,1.76,1.86l11,13"/><path class="cls-1" d="M453.41,53.61a5.91,5.91,0,0,1,.44-2.26,5.68,5.68,0,0,1,1.2-1.85,5.77,5.77,0,0,1,6.36-1.25,5.81,5.81,0,0,1,1.85,1.25,6,6,0,0,1,1.25,1.85,5.57,5.57,0,0,1,.46,2.26,5.51,5.51,0,0,1-.46,2.29,6,6,0,0,1-1.25,1.83A5.57,5.57,0,0,1,461.41,59a6,6,0,0,1-4.53,0,5.39,5.39,0,0,1-1.83-1.22,5.7,5.7,0,0,1-1.2-1.83A5.84,5.84,0,0,1,453.41,53.61Z"/></g></g></svg>